<svg id="Flat" height="512" viewBox="0 0 512 512" width="512" xmlns="http://www.w3.org/2000/svg"><rect fill="#f7cc38" height="288" rx="32" width="384" x="24" y="88"/><path d="m24 392a32 32 0 0 0 32 32h320a32 32 0 0 0 32-32v-224a32 32 0 0 0 -32-32h-176v-64a32 32 0 0 0 -32-32h-112a32 32 0 0 0 -32 32z" fill="#fbe36a"/><circle cx="384" cy="368" fill="#75ab7d" r="104"/><path d="m368 432a8 8 0 0 1 -5.656-2.343l-32-32a8 8 0 0 1 11.314-11.314l25.1 25.1 58.587-87.881a8 8 0 0 1 13.312 8.876l-64 96a8 8 0 0 1 -5.868 3.523q-.396.039-.789.039z" fill="#e9eef2"/></svg>